<svg width="673" height="532" viewBox="0 0 673 532" fill="none" xmlns="http://www.w3.org/2000/svg">
<path d="M268.096 303.451L135.946 171.301C134.399 169.753 132.561 168.525 130.539 167.687C128.517 166.85 126.35 166.419 124.161 166.419C121.972 166.419 119.805 166.85 117.783 167.687C115.761 168.525 113.923 169.753 112.376 171.301L29.8798 253.801C26.7553 256.926 25 261.165 25 265.584C25 270.003 26.7553 274.242 29.8798 277.367L208.109 455.596" stroke="#02153A" stroke-width="50"/>
<path d="M642.706 112.377L560.211 29.8815C553.702 23.3728 543.149 23.3728 536.64 29.8815L171.302 395.22C164.793 401.729 164.793 412.282 171.302 418.79L253.798 501.286C260.307 507.795 270.859 507.795 277.368 501.286L642.707 135.948C649.215 129.439 649.215 118.886 642.706 112.377Z" stroke="#02153A" stroke-width="50" stroke-linejoin="round"/>
</svg>
