<svg width="3041" height="626" viewBox="0 0 3041 626" fill="none" xmlns="http://www.w3.org/2000/svg">
<path d="M268.096 303.451L135.946 171.301C134.399 169.753 132.561 168.525 130.539 167.687C128.517 166.85 126.35 166.419 124.161 166.419C121.972 166.419 119.805 166.85 117.783 167.687C115.761 168.525 113.923 169.753 112.376 171.301L29.8798 253.801C26.7553 256.926 25 261.165 25 265.584C25 270.003 26.7553 274.242 29.8798 277.367L208.109 455.596" stroke="#02153A" stroke-width="50"/>
<path d="M642.706 112.377L560.211 29.8815C553.702 23.3728 543.149 23.3728 536.64 29.8815L171.302 395.22C164.793 401.729 164.793 412.282 171.302 418.79L253.798 501.286C260.307 507.795 270.859 507.795 277.368 501.286L642.707 135.948C649.215 129.439 649.215 118.886 642.706 112.377Z" stroke="#02153A" stroke-width="50" stroke-linejoin="round"/>
<path d="M2379 592.096L703 592.096" stroke="#02153A" stroke-width="60"/>
<path d="M708.508 208.581H748.059V95.4949H809.875V208.581H903.332V270.397H809.875V425.964C809.875 432.604 812.414 438.366 817.492 443.249C822.766 447.936 829.016 450.28 836.242 450.28H903.332V512.096H835.363C819.348 512.096 804.699 508.288 791.418 500.671C778.332 492.858 767.785 482.507 759.777 469.616C751.965 456.53 748.059 442.077 748.059 426.257V270.397H708.508V208.581Z" fill="white"/>
<path d="M956.359 317.565C956.359 297.448 961.242 279.186 971.008 262.78C980.969 246.374 994.25 233.288 1010.85 223.522C1027.45 213.561 1045.81 208.581 1065.93 208.581H1235.27V512.096H1173.45V270.397H1065.93C1052.84 270.397 1041.61 275.085 1032.24 284.46C1022.86 293.639 1018.18 304.87 1018.18 318.151V401.94C1018.18 415.221 1022.86 426.647 1032.24 436.218C1041.61 445.593 1052.84 450.28 1065.93 450.28H1138.29V512.096H1065.93C1045.81 512.096 1027.45 507.214 1010.85 497.448C994.25 487.487 980.969 474.206 971.008 457.604C961.242 441.003 956.359 422.643 956.359 402.526V317.565Z" fill="white"/>
<path d="M1302.65 293.835C1302.65 278.014 1306.55 263.659 1314.37 250.768C1322.38 237.878 1332.92 227.624 1346.01 220.007C1359.29 212.389 1373.94 208.581 1389.95 208.581H1568.08V270.397H1389.95C1382.92 270.397 1376.87 272.741 1371.79 277.428C1366.91 281.921 1364.46 287.389 1364.46 293.835V301.159C1364.46 307.8 1366.91 313.464 1371.79 318.151C1376.87 322.839 1382.92 325.182 1389.95 325.182H1500.7C1516.71 325.182 1531.26 329.089 1544.35 336.901C1557.63 344.518 1568.18 354.772 1575.99 367.663C1583.8 380.553 1587.71 394.909 1587.71 410.729V426.55C1587.71 442.175 1583.8 456.53 1575.99 469.616C1568.18 482.507 1557.63 492.858 1544.35 500.671C1531.26 508.288 1516.71 512.096 1500.7 512.096H1316.42V450.28H1500.7C1507.73 450.28 1513.68 447.936 1518.57 443.249C1523.64 438.561 1526.18 432.897 1526.18 426.257V411.022C1526.18 404.186 1523.64 398.425 1518.57 393.737C1513.68 389.05 1507.73 386.706 1500.7 386.706H1389.95C1373.94 386.706 1359.29 382.897 1346.01 375.28C1332.92 367.468 1322.38 357.116 1314.37 344.225C1306.55 331.139 1302.65 316.784 1302.65 301.159V293.835Z" fill="white"/>
<path d="M1655.38 95.4949H1717.2V324.889H1738L1847.86 208.581H1928.14L1789.56 355.651L1940.44 512.096H1854.02L1732.43 386.706H1717.2V512.096H1655.38V95.4949Z" fill="white"/>
<path d="M2144.84 95.4949H2221.89L2371.01 512.096H2305.09L2259.68 386.706H2143.38L2165.64 325.182H2237.42L2183.51 176.354L2061.64 512.096H1995.72L2144.84 95.4949Z" fill="#02153A"/>
<path d="M2415.25 270.397C2415.25 253.405 2421.3 238.854 2433.41 226.745C2445.52 214.635 2460.07 208.581 2477.07 208.581H2584.59C2604.7 208.581 2623.06 213.561 2639.66 223.522C2656.27 233.288 2669.45 246.374 2679.21 262.78C2689.18 279.186 2694.16 297.448 2694.16 317.565V402.526C2694.16 422.643 2689.18 441.003 2679.21 457.604C2669.45 474.206 2656.27 487.487 2639.66 497.448C2623.06 507.214 2604.7 512.096 2584.59 512.096H2512.22V450.28H2584.59C2597.87 450.28 2609.1 445.593 2618.28 436.218C2627.65 426.647 2632.34 415.221 2632.34 401.94V318.151C2632.34 304.87 2627.65 293.639 2618.28 284.46C2609.1 275.085 2597.87 270.397 2584.59 270.397H2477.07V625.182H2415.25V270.397Z" fill="#02153A"/>
<path d="M2761.54 270.397C2761.54 253.405 2767.59 238.854 2779.7 226.745C2791.81 214.635 2806.36 208.581 2823.36 208.581H2930.88C2950.99 208.581 2969.35 213.561 2985.95 223.522C3002.55 233.288 3015.74 246.374 3025.5 262.78C3035.46 279.186 3040.45 297.448 3040.45 317.565V402.526C3040.45 422.643 3035.46 441.003 3025.5 457.604C3015.74 474.206 3002.55 487.487 2985.95 497.448C2969.35 507.214 2950.99 512.096 2930.88 512.096H2858.51V450.28H2930.88C2944.16 450.28 2955.39 445.593 2964.57 436.218C2973.94 426.647 2978.63 415.221 2978.63 401.94V318.151C2978.63 304.87 2973.94 293.639 2964.57 284.46C2955.39 275.085 2944.16 270.397 2930.88 270.397H2823.36V625.182H2761.54V270.397Z" fill="#02153A"/>
</svg>
